<svg width="59" height="93" viewBox="0 0 59 93" fill="none" xmlns="http://www.w3.org/2000/svg">
<path d="M32.8892 21.4766C38.7938 21.4766 43.5804 16.713 43.5804 10.8368C43.5804 4.96058 38.7938 0.19696 32.8892 0.19696C26.9845 0.19696 22.1979 4.96058 22.1979 10.8368C22.1979 16.713 26.9845 21.4766 32.8892 21.4766Z" fill="#2F2E41"/>
<path d="M22.7308 79.139L22.4477 74.3164L41.0054 70.9334L41.4235 78.0518L22.7308 79.139Z" fill="#FFB8B8"/>
<path d="M23.6298 70.7909L24.1762 80.0923L18.2914 80.4346L17.4011 65.2768C18.1739 65.2318 18.948 65.3388 19.6793 65.5915C20.4106 65.8443 21.0846 66.238 21.663 66.75C22.2414 67.262 22.7128 67.8824 23.0503 68.5758C23.3877 69.2691 23.5847 70.0218 23.6298 70.7909Z" fill="#2F2E41"/>
<path d="M30.8023 79.095L27.7197 82.8272L11.7873 72.771L16.3367 67.2627L30.8023 79.095Z" fill="#FFB8B8"/>
<path d="M24.4464 84.6167L30.3912 77.4188L34.9452 81.1438L25.2573 92.8737C24.6593 92.3846 24.1639 91.7829 23.7995 91.1033C23.4351 90.4236 23.2088 89.6791 23.1335 88.9124C23.0582 88.1456 23.1354 87.3716 23.3607 86.6346C23.5859 85.8975 23.9549 85.2118 24.4464 84.6167Z" fill="#2F2E41"/>
<path d="M21.9316 61.7387L19.8251 71.6214C19.7766 71.849 19.7793 72.0844 19.833 72.3108C19.8868 72.5372 19.9902 72.7489 20.1358 72.9309C20.2815 73.1128 20.4658 73.2604 20.6756 73.363C20.8853 73.4657 21.1153 73.5208 21.349 73.5246L42.0575 73.857C42.291 73.8607 42.5223 73.8131 42.7351 73.7174C42.9479 73.6218 43.1367 73.4805 43.2882 73.3038C43.4397 73.127 43.5501 72.9191 43.6114 72.6949C43.6727 72.4707 43.6834 72.2358 43.6429 72.007L41.8315 61.7918C41.7668 61.4269 41.575 61.0964 41.2897 60.8582C41.0045 60.62 40.644 60.4895 40.2717 60.4895H23.481C23.118 60.4895 22.766 60.6136 22.484 60.841C22.2019 61.0684 22.0069 61.3853 21.9316 61.7387Z" fill="#2F2E41"/>
<path d="M25.3657 65.2182C25.3657 65.2182 5.17106 52.608 1.21132 59.3072C-0.768541 62.6568 0.221392 65.9078 1.70629 68.3215C3.08429 70.5192 5.06235 72.2811 7.40929 73.4015L23.7818 81.375L29.7214 75.0699L25.7617 71.5233L25.3657 65.2182Z" fill="#2F2E41"/>
<path d="M35.661 63.2479C35.661 63.2479 61.7952 55.7606 56.6475 69.9471C51.4999 84.1335 32.0972 78.6166 32.0972 78.6166L30.1173 72.7056L36.8489 67.9767L35.661 63.2479Z" fill="#2F2E41"/>
<path d="M33.0232 22.9452C38.3945 22.9452 42.7487 18.6119 42.7487 13.2665C42.7487 7.92107 38.3945 3.58777 33.0232 3.58777C27.652 3.58777 23.2977 7.92107 23.2977 13.2665C23.2977 18.6119 27.652 22.9452 33.0232 22.9452Z" fill="#FFB8B8"/>
<path d="M33.5328 64.812C29.4915 64.7512 25.471 64.224 21.5518 63.2411L21.436 63.2096L16.009 38.3656C15.5207 36.1825 15.8527 33.897 16.9421 31.9408C18.0315 29.9846 19.803 28.4932 21.922 27.7481C28.4673 25.4109 35.6013 25.2692 42.2352 27.3444H42.2353C44.4613 28.0583 46.335 29.5811 47.4825 31.6091C48.63 33.6371 48.9671 36.0212 48.4264 38.2856L42.3647 63.1888L42.2793 63.2292C39.7602 64.4168 36.6101 64.812 33.5328 64.812Z" fill="#CCCCCC"/>
<path d="M26.2429 66.7417C26.44 66.1966 26.7548 65.7011 27.1651 65.2902C27.5754 64.8793 28.0712 64.5629 28.6177 64.3633C29.1642 64.1637 29.748 64.0858 30.328 64.135C30.908 64.1843 31.4701 64.3595 31.9747 64.6483L42.6607 55.4175L43.6275 62.6717L33.3317 70.3253C32.788 71.1368 31.964 71.7216 31.016 71.9688C30.0679 72.2161 29.0617 72.1087 28.1879 71.667C27.3141 71.2253 26.6335 70.4799 26.275 69.5722C25.9165 68.6644 25.9051 67.6573 26.2429 66.7417Z" fill="#FFB8B8"/>
<path d="M36.4344 68.7552C36.2605 68.755 36.0876 68.7297 35.921 68.6801C35.6507 68.6018 35.4031 68.4602 35.199 68.2671C34.9949 68.074 34.8403 67.835 34.748 67.5703L33.4582 63.9336C33.3374 63.5975 33.3221 63.2329 33.4142 62.8879C33.5063 62.5429 33.7014 62.2339 33.9738 62.0017L48.5333 53.303L42.794 27.8221L42.94 27.7871C42.9994 27.7725 48.8797 26.4406 51.2894 32.8354C52.9768 37.314 59.2213 47.0522 58.7808 53.6328C58.6971 54.9491 58.17 56.1989 57.2847 57.1805C56.3994 58.162 55.2076 58.8179 53.9016 59.0424L37.513 68.3869C37.2043 68.6251 36.825 68.7546 36.4344 68.7552Z" fill="#CCCCCC"/>
<path d="M38.0673 65.8775C37.8702 65.3324 37.5554 64.837 37.1451 64.426C36.7348 64.0151 36.239 63.6987 35.6925 63.4991C35.146 63.2996 34.5622 63.2216 33.9822 63.2709C33.4022 63.3201 32.8401 63.4953 32.3355 63.7842L21.6495 54.5533L20.6827 61.8075L30.9785 69.4611C31.5222 70.2726 32.3462 70.8574 33.2942 71.1047C34.2423 71.3519 35.2485 71.2445 36.1223 70.8028C36.9961 70.3611 37.6767 69.6157 38.0352 68.708C38.3937 67.8002 38.4051 66.7931 38.0673 65.8775Z" fill="#FFB8B8"/>
<path d="M28.948 68.7552C28.5574 68.7546 28.1781 68.6251 27.8694 68.3869L10.2929 59.8305C8.98688 59.6061 7.79502 58.9502 6.90972 57.9686C6.02443 56.9871 5.49739 55.7373 5.4137 54.421C4.97316 47.8403 12.4056 37.314 14.093 32.8354C16.5025 26.4406 22.3829 27.7721 22.4424 27.7871L22.5884 27.8222L15.6611 54.0912L31.4085 62.0018C31.6809 62.2339 31.8761 62.5429 31.9682 62.8879C32.0603 63.2329 32.0449 63.5975 31.9242 63.9336L30.6344 67.5703C30.5421 67.8351 30.3875 68.074 30.1834 68.2671C29.9793 68.4602 29.7317 68.6018 29.4613 68.6801C29.2948 68.7297 29.1218 68.755 28.948 68.7552Z" fill="#CCCCCC"/>
<path d="M49.916 72.7054H14.6744C13.9395 72.7045 13.235 72.4136 12.7154 71.8965C12.1957 71.3794 11.9034 70.6782 11.9026 69.9469V50.6376C11.9034 49.9062 12.1957 49.2051 12.7154 48.688C13.235 48.1709 13.9395 47.8799 14.6744 47.8791H49.916C50.6509 47.8799 51.3554 48.1709 51.875 48.688C52.3947 49.2051 52.687 49.9062 52.6878 50.6376V69.9469C52.687 70.6782 52.3946 71.3794 51.875 71.8965C51.3554 72.4136 50.6509 72.7045 49.916 72.7054Z" fill="#6C63FF"/>
<path d="M32.2952 62.6569C33.6073 62.6569 34.671 61.5983 34.671 60.2924C34.671 58.9866 33.6073 57.928 32.2952 57.928C30.983 57.928 29.9193 58.9866 29.9193 60.2924C29.9193 61.5983 30.983 62.6569 32.2952 62.6569Z" fill="white"/>
<path d="M23.2003 12.8726C22.6239 11.4176 23.5696 9.6836 24.9725 8.97878C26.3755 8.27396 28.0684 8.40801 29.5691 8.87253C30.8302 9.26291 32.0122 9.86789 33.2425 10.3457C34.4554 10.8807 35.7804 11.1155 37.1044 11.0302C38.4167 10.8827 39.7229 10.1503 40.2599 8.94951C40.8165 7.70481 40.4379 6.18586 39.5807 5.12359C38.6687 4.09664 37.4883 3.34161 36.1707 2.9425C33.2772 1.928 29.9348 1.89834 27.2485 3.37302C24.5622 4.84769 22.7366 7.98764 23.2919 10.9904" fill="#2F2E41"/>
</svg>
