<svg width="53" height="52" viewBox="0 0 53 52" fill="none" xmlns="http://www.w3.org/2000/svg">
<g clip-path="url(#clip0_106:42)">
<path d="M33.9651 30.21H32.2698L31.669 29.6306C33.772 27.1843 35.038 24.0083 35.038 20.5534C35.038 12.8496 28.7934 6.60498 21.0896 6.60498C13.3858 6.60498 7.14117 12.8496 7.14117 20.5534C7.14117 28.2572 13.3858 34.5018 21.0896 34.5018C24.5445 34.5018 27.7205 33.2358 30.1668 31.1328L30.7462 31.7336V33.4289L41.4758 44.137L44.6732 40.9396L33.9651 30.21ZM21.0896 30.21C15.7463 30.21 11.433 25.8967 11.433 20.5534C11.433 15.2101 15.7463 10.8968 21.0896 10.8968C26.4329 10.8968 30.7462 15.2101 30.7462 20.5534C30.7462 25.8967 26.4329 30.21 21.0896 30.21Z" fill="#737272"/>
</g>
<defs>
<clipPath id="clip0_106:42">
<rect width="51.5019" height="51.5019" fill="white" transform="translate(0.70343 0.167236)"/>
</clipPath>
</defs>
</svg>
