<svg width="466" height="390" viewBox="0 0 466 390" fill="none" xmlns="http://www.w3.org/2000/svg">
<g clip-path="url(#clip0_18_192)">
<path d="M318.355 -8.22427e-05L0 189.122L9.57428 205.32L327.929 16.1983L318.355 -8.22427e-05Z" fill="#F2F2F2"/>
<path d="M387.548 15.8556L69.1936 204.978L78.7679 221.176L397.122 32.0539L387.548 15.8556Z" fill="#F2F2F2"/>
<path d="M448.834 33.1978L130.479 222.32L140.054 238.518L458.408 49.3962L448.834 33.1978Z" fill="#F2F2F2"/>
<path d="M207.361 221.697C262.409 221.697 307.034 176.958 307.034 121.771C307.034 66.584 262.409 21.8458 207.361 21.8458C152.313 21.8458 107.688 66.584 107.688 121.771C107.688 176.958 152.313 221.697 207.361 221.697Z" fill="white"/>
<path d="M106.947 121.771C106.947 66.2625 151.992 21.1027 207.361 21.1027C262.73 21.1027 307.776 66.2625 307.776 121.771C307.776 177.28 262.73 222.44 207.361 222.44C151.992 222.44 106.947 177.28 106.947 121.771ZM108.429 121.771C108.429 176.46 152.81 220.953 207.361 220.953C261.912 220.953 306.293 176.46 306.293 121.771C306.293 67.0822 261.912 22.5891 207.361 22.5891C152.81 22.5891 108.429 67.0822 108.429 121.771H108.429Z" fill="#3F3D56"/>
<path d="M189.593 122.206C189.593 118.683 190.635 115.239 192.588 112.309C194.54 109.38 197.315 107.097 200.562 105.749C203.808 104.401 207.381 104.048 210.827 104.735C214.274 105.422 217.44 107.119 219.925 109.61C222.41 112.101 224.102 115.275 224.788 118.731C225.473 122.186 225.121 125.768 223.776 129.022C222.432 132.277 220.154 135.059 217.232 137.017C214.31 138.974 210.875 140.019 207.361 140.019C202.649 140.018 198.129 138.142 194.797 134.801C191.465 131.461 189.593 126.93 189.593 122.206V122.206ZM207.361 105.262C202.88 105.267 198.584 107.054 195.416 110.23C192.247 113.407 190.465 117.713 190.46 122.206C190.46 125.557 191.451 128.833 193.308 131.619C195.165 134.406 197.805 136.577 200.893 137.86C203.982 139.142 207.38 139.478 210.658 138.824C213.937 138.17 216.948 136.557 219.312 134.187C221.676 131.817 223.285 128.798 223.937 125.511C224.59 122.225 224.255 118.818 222.976 115.722C221.696 112.625 219.53 109.979 216.751 108.117C213.971 106.256 210.704 105.262 207.361 105.262Z" fill="#3F3D56"/>
<path d="M173.559 122.206C173.559 115.503 175.541 108.952 179.256 103.379C182.97 97.8059 188.249 93.4624 194.426 90.8976C200.602 88.3327 207.399 87.6616 213.956 88.9692C220.513 90.2767 226.536 93.5042 231.263 98.2435C235.99 102.983 239.21 109.021 240.514 115.595C241.818 122.168 241.149 128.982 238.59 135.174C236.032 141.366 231.699 146.659 226.141 150.382C220.582 154.106 214.047 156.093 207.361 156.093C202.922 156.093 198.527 155.217 194.426 153.514C190.325 151.811 186.598 149.315 183.459 146.168C180.321 143.021 177.831 139.285 176.132 135.174C174.433 131.063 173.559 126.656 173.559 122.206V122.206ZM207.361 89.1869C200.847 89.1869 194.479 91.1234 189.063 94.7516C183.647 98.3797 179.426 103.537 176.933 109.57C174.44 115.603 173.788 122.242 175.059 128.647C176.329 135.052 179.466 140.936 184.072 145.554C188.678 150.171 194.547 153.316 200.936 154.59C207.325 155.864 213.947 155.21 219.965 152.711C225.983 150.212 231.127 145.98 234.746 140.55C238.365 135.12 240.297 128.736 240.297 122.206C240.287 113.452 236.814 105.059 230.639 98.8688C224.465 92.6787 216.093 89.1968 207.361 89.1869Z" fill="#CCCCCC"/>
<path d="M141.49 122.206C141.49 109.145 145.353 96.3769 152.591 85.5171C159.829 74.6573 170.117 66.193 182.153 61.1948C194.19 56.1966 207.434 54.8888 220.212 57.4369C232.99 59.985 244.727 66.2745 253.939 75.51C263.151 84.7455 269.425 96.5123 271.966 109.322C274.508 122.132 273.204 135.41 268.218 147.477C263.232 159.544 254.789 169.858 243.957 177.114C233.125 184.37 220.389 188.243 207.361 188.243C189.897 188.224 173.154 181.26 160.805 168.879C148.456 156.499 141.51 139.714 141.49 122.206ZM207.361 57.0369C194.505 57.0369 181.937 60.859 171.247 68.0199C160.557 75.1807 152.225 85.3587 147.305 97.2667C142.385 109.175 141.098 122.278 143.606 134.919C146.114 147.561 152.305 159.173 161.396 168.287C170.487 177.401 182.07 183.608 194.679 186.122C207.289 188.637 220.359 187.346 232.237 182.414C244.115 177.481 254.267 169.128 261.41 158.411C268.553 147.695 272.365 135.095 272.365 122.206C272.346 104.928 265.491 88.3633 253.305 76.146C241.118 63.9287 224.595 57.0565 207.361 57.0369Z" fill="#CCCCCC"/>
<path d="M207.361 130.026C211.909 130.026 215.595 126.33 215.595 121.771C215.595 117.212 211.909 113.517 207.361 113.517C202.814 113.517 199.127 117.212 199.127 121.771C199.127 126.33 202.814 130.026 207.361 130.026Z" fill="#6C63FF"/>
<path d="M186.126 153.921C190.674 153.921 194.36 150.225 194.36 145.666C194.36 141.107 190.674 137.412 186.126 137.412C181.579 137.412 177.893 141.107 177.893 145.666C177.893 150.225 181.579 153.921 186.126 153.921Z" fill="#6C63FF"/>
<path d="M268.97 150.446C273.517 150.446 277.204 146.75 277.204 142.191C277.204 137.632 273.517 133.936 268.97 133.936C264.422 133.936 260.736 137.632 260.736 142.191C260.736 146.75 264.422 150.446 268.97 150.446Z" fill="#6C63FF"/>
<path d="M207.361 125.681C209.515 125.681 211.261 123.931 211.261 121.771C211.261 119.612 209.515 117.861 207.361 117.861C205.207 117.861 203.461 119.612 203.461 121.771C203.461 123.931 205.207 125.681 207.361 125.681Z" fill="#2F2E41"/>
<path d="M268.97 146.101C271.124 146.101 272.87 144.35 272.87 142.191C272.87 140.031 271.124 138.281 268.97 138.281C266.816 138.281 265.07 140.031 265.07 142.191C265.07 144.35 266.816 146.101 268.97 146.101Z" fill="#2F2E41"/>
<path d="M186.126 150.011C188.28 150.011 190.027 148.26 190.027 146.101C190.027 143.941 188.28 142.191 186.126 142.191C183.972 142.191 182.226 143.941 182.226 146.101C182.226 148.26 183.972 150.011 186.126 150.011Z" fill="#2F2E41"/>
<path d="M25.3494 81.8011C27.5034 81.8011 29.2496 80.0504 29.2496 77.8909C29.2496 75.7314 27.5034 73.9808 25.3494 73.9808C23.1954 73.9808 21.4492 75.7314 21.4492 77.8909C21.4492 80.0504 23.1954 81.8011 25.3494 81.8011Z" fill="#6C63FF"/>
<path d="M207.144 78.1085H35.9664V77.2396H208.012V121.988H207.144V78.1085Z" fill="#2F2E41"/>
<path d="M14.0819 77.891C14.0819 75.6569 14.7427 73.4729 15.9808 71.6153C17.2189 69.7577 18.9786 68.3099 21.0374 67.4549C23.0963 66.5999 25.3618 66.3762 27.5475 66.8121C29.7331 67.2479 31.7408 68.3238 33.3166 69.9035C34.8923 71.4833 35.9655 73.496 36.4002 75.6872C36.835 77.8784 36.6118 80.1497 35.759 82.2137C34.9062 84.2778 33.4621 86.042 31.6091 87.2832C29.7562 88.5244 27.5778 89.1869 25.3493 89.1869C23.8697 89.1869 22.4045 88.8947 21.0375 88.3271C19.6704 87.7594 18.4283 86.9273 17.3821 85.8784C16.3358 84.8295 15.5058 83.5842 14.9396 82.2138C14.3733 80.8433 14.0819 79.3744 14.0819 77.891ZM25.3493 67.464C23.2923 67.464 21.2814 68.0755 19.571 69.2212C17.8606 70.367 16.5275 71.9954 15.7403 73.9007C14.9531 75.806 14.7472 77.9025 15.1485 79.9252C15.5498 81.9478 16.5404 83.8058 17.9949 85.264C19.4495 86.7222 21.3027 87.7153 23.3202 88.1176C25.3378 88.52 27.429 88.3135 29.3295 87.5243C31.2299 86.7351 32.8543 85.3986 33.9972 83.6839C35.14 81.9692 35.75 79.9532 35.75 77.891C35.7468 75.1265 34.65 72.4762 32.7002 70.5215C30.7504 68.5667 28.1068 67.4671 25.3493 67.464Z" fill="#2F2E41"/>
<path d="M51.3511 194.326C53.5051 194.326 55.2513 192.575 55.2513 190.416C55.2513 188.256 53.5051 186.505 51.3511 186.505C49.197 186.505 47.4508 188.256 47.4508 190.416C47.4508 192.575 49.197 194.326 51.3511 194.326Z" fill="#6C63FF"/>
<path d="M40.0837 190.416C40.0837 188.182 40.7445 185.998 41.9826 184.14C43.2206 182.282 44.9804 180.835 47.0392 179.98C49.0981 179.125 51.3636 178.901 53.5492 179.337C55.7349 179.773 57.7425 180.848 59.3183 182.428C60.8941 184.008 61.9672 186.021 62.402 188.212C62.8367 190.403 62.6136 192.674 61.7608 194.738C60.908 196.802 59.4638 198.567 57.6109 199.808C55.758 201.049 53.5795 201.712 51.3511 201.712C48.3628 201.712 45.4969 200.521 43.3838 198.403C41.2708 196.285 40.0837 193.412 40.0837 190.416ZM51.3511 179.989C49.294 179.989 47.2832 180.6 45.5728 181.746C43.8624 182.892 42.5293 184.52 41.7421 186.425C40.9549 188.331 40.7489 190.427 41.1502 192.45C41.5515 194.472 42.5421 196.33 43.9967 197.789C45.4512 199.247 47.3044 200.24 49.322 200.642C51.3395 201.045 53.4307 200.838 55.3312 200.049C57.2317 199.26 58.856 197.923 59.9989 196.209C61.1417 194.494 61.7517 192.478 61.7517 190.416C61.7486 187.651 60.6518 185.001 58.7019 183.046C56.7521 181.091 54.1085 179.992 51.3511 179.989Z" fill="#2F2E41"/>
<path d="M389.878 100.048C392.032 100.048 393.778 98.2977 393.778 96.1382C393.778 93.9787 392.032 92.2281 389.878 92.2281C387.724 92.2281 385.977 93.9787 385.977 96.1382C385.977 98.2977 387.724 100.048 389.878 100.048Z" fill="#6C63FF"/>
<path d="M378.61 96.1382C378.61 93.9041 379.271 91.7201 380.509 89.8625C381.747 88.0049 383.507 86.5571 385.566 85.7021C387.625 84.8472 389.89 84.6235 392.076 85.0593C394.261 85.4952 396.269 86.571 397.845 88.1508C399.421 89.7306 400.494 91.7433 400.929 93.9345C401.363 96.1257 401.14 98.3969 400.287 100.461C399.435 102.525 397.99 104.289 396.137 105.53C394.285 106.772 392.106 107.434 389.878 107.434C388.398 107.434 386.933 107.142 385.566 106.574C384.199 106.007 382.957 105.175 381.91 104.126C380.864 103.077 380.034 101.831 379.468 100.461C378.902 99.0905 378.61 97.6216 378.61 96.1382ZM389.878 85.7112C387.12 85.7144 384.476 86.814 382.527 88.7687C380.577 90.7235 379.48 93.3738 379.477 96.1382C379.477 98.2005 380.087 100.216 381.23 101.931C382.373 103.646 383.997 104.982 385.897 105.771C387.798 106.561 389.889 106.767 391.907 106.365C393.924 105.963 395.777 104.969 397.232 103.511C398.687 102.053 399.677 100.195 400.078 98.1724C400.48 96.1498 400.274 94.0532 399.487 92.1479C398.699 90.2427 397.366 88.6142 395.656 87.4685C393.946 86.3227 391.935 85.7112 389.878 85.7112V85.7112Z" fill="#2F2E41"/>
<path d="M268.536 97.4482L379.037 95.7039L379.05 96.5722L269.403 98.3036V142.191H268.536V97.4482Z" fill="#2F2E41"/>
<path d="M62.1854 189.981H185.693V146.101H186.56V190.85H62.1854V189.981Z" fill="#2F2E41"/>
<path d="M49.1842 98.3105H1.51447V101.352H49.1842V98.3105Z" fill="#CCCCCC"/>
<path d="M49.1842 107H1.51447V110.041H49.1842V107Z" fill="#CCCCCC"/>
<path d="M49.1842 115.689H1.51447V118.73H49.1842V115.689Z" fill="#CCCCCC"/>
<path d="M75.1859 210.835H27.5162V213.876H75.1859V210.835Z" fill="#CCCCCC"/>
<path d="M75.1859 219.524H27.5162V222.566H75.1859V219.524Z" fill="#CCCCCC"/>
<path d="M75.1859 228.214H27.5162V231.255H75.1859V228.214Z" fill="#CCCCCC"/>
<path d="M413.712 116.992H366.043V120.033H413.712V116.992Z" fill="#CCCCCC"/>
<path d="M413.712 125.681H366.043V128.723H413.712V125.681Z" fill="#CCCCCC"/>
<path d="M413.712 134.371H366.043V137.412H413.712V134.371Z" fill="#CCCCCC"/>
<path d="M436.406 376.105L429.627 378.534L417.055 353.475L427.061 349.89L436.406 376.105Z" fill="#FFB8B8"/>
<path d="M418.624 389.905L418.525 389.628C417.722 387.366 417.846 384.876 418.871 382.706C419.896 380.535 421.738 378.861 423.993 378.05L437.344 373.266L440.484 382.074L418.624 389.905Z" fill="#2F2E41"/>
<path d="M392.322 382.827L385.123 382.827L381.698 354.988L392.323 354.988L392.322 382.827Z" fill="#FFB8B8"/>
<path d="M394.158 389.823L370.944 389.823V389.528C370.944 388.339 371.178 387.161 371.632 386.062C372.086 384.963 372.752 383.964 373.591 383.123C374.43 382.282 375.426 381.615 376.522 381.16C377.618 380.704 378.793 380.47 379.98 380.47H379.98L394.158 380.471L394.158 389.823Z" fill="#2F2E41"/>
<path d="M408.729 204.972L405.598 198.769C405.598 198.769 393.934 201.699 392.874 208.476L408.729 204.972Z" fill="#6C63FF"/>
<path d="M421.648 275.891L413.133 323.525L435.742 363.609L422.235 368.907L399.334 330.052L396.397 319.455L394.636 374.794L382.455 374.423L376.87 322.75L385.827 274.713L421.648 275.891Z" fill="#2F2E41"/>
<path d="M380.981 284.484C380.716 283.304 379.959 247.293 379.959 247.293C379.959 247.293 392.481 206.078 392.596 205.74L392.641 205.607L402.148 202.034C402.282 201.973 405.449 200.558 408.041 201.737C408.706 202.061 409.292 202.527 409.759 203.102C410.226 203.677 410.562 204.347 410.743 205.066C411.821 205.871 419.593 214.599 419.593 226.436L419.886 254.37L426.401 284.654L426.113 284.715C425.935 284.753 417.994 287.152 405.485 287.152C398.535 287.152 380.981 284.484 380.981 284.484Z" fill="#3F3D56"/>
<path d="M395.874 196.817C402.971 196.817 408.724 191.049 408.724 183.934C408.724 176.819 402.971 171.051 395.874 171.051C388.777 171.051 383.023 176.819 383.023 183.934C383.023 191.049 388.777 196.817 395.874 196.817Z" fill="#FFB8B8"/>
<path opacity="0.2" d="M414.18 240.689L391.7 272.136L388.379 257.451L414.18 240.689Z" fill="black"/>
<path d="M374.28 272.814C375.086 272.782 375.875 272.573 376.591 272.203C377.307 271.832 377.934 271.308 378.427 270.668C378.919 270.029 379.266 269.288 379.442 268.5C379.619 267.711 379.621 266.893 379.448 266.104L396.152 255.831L386.928 251.505L372.479 261.923C371.176 262.303 370.056 263.148 369.333 264.299C368.61 265.451 368.333 266.828 368.555 268.171C368.777 269.513 369.482 270.727 370.537 271.583C371.593 272.439 372.924 272.877 374.28 272.814Z" fill="#FFB8B8"/>
<path d="M385.827 251.754L380.106 255.773L384.958 264.411L391.7 258.818L385.827 251.754Z" fill="#6C63FF"/>
<path d="M382.832 252.007L396.29 236.369L391.134 214.799C390.601 212.57 390.895 210.223 391.962 208.195C393.029 206.168 394.796 204.599 396.932 203.782C399.068 202.965 401.428 202.955 403.571 203.754C405.714 204.553 407.493 206.107 408.577 208.126L408.694 208.344L413.445 240.375L389.572 264.907L382.832 252.007Z" fill="#3F3D56"/>
<path d="M406.819 195.119L396.153 195.503C395.503 195.526 393.739 188.492 393.508 187.033C393.325 186.083 392.804 185.232 392.041 184.639C391.279 184.046 390.327 183.752 389.364 183.811C388.565 183.887 386.552 182.391 384.475 180.621C380.53 177.259 380.736 170.945 385.068 168.105C385.187 168.027 385.303 167.956 385.417 167.892C388.15 166.358 391.348 165.843 394.48 165.804C397.319 165.768 400.239 166.127 402.74 167.474C407.224 169.889 409.611 175.168 409.821 180.267C410.03 185.366 408.4 190.352 406.549 195.106" fill="#2F2E41"/>
<path d="M465.413 390H335.636C335.48 390 335.331 389.938 335.221 389.828C335.111 389.717 335.049 389.567 335.049 389.411C335.049 389.255 335.111 389.105 335.221 388.995C335.331 388.885 335.48 388.823 335.636 388.823H465.413C465.569 388.823 465.718 388.885 465.828 388.995C465.938 389.105 466 389.255 466 389.411C466 389.567 465.938 389.717 465.828 389.828C465.718 389.938 465.569 390 465.413 390Z" fill="#3F3D56"/>
</g>
<defs>
<clipPath id="clip0_18_192">
<rect width="466" height="390" fill="white"/>
</clipPath>
</defs>
</svg>
