<svg width="296" height="363" viewBox="0 0 296 363" fill="none" xmlns="http://www.w3.org/2000/svg">
<path opacity="0.05" d="M294.844 133.627L293.859 137.234L215.721 115.892L236.536 39.6837L240.234 40.694C244.12 41.7552 247.435 44.2788 249.451 47.7085L293.313 122.351C295.328 125.781 295.879 129.837 294.844 133.627ZM205.633 133.611C197.575 131.41 192.739 123.179 194.885 115.32L217.001 34.3483L94.9107 1.0016C86.8192 -1.20845 78.5125 3.39735 76.3571 11.2891L0.903044 287.545C-1.25244 295.437 3.55956 303.626 11.6511 305.836L216.763 361.858C224.855 364.068 233.161 359.462 235.317 351.571L288.655 156.286L205.633 133.611ZM90.3425 255.995C89.9623 256.222 89.5391 256.373 89.0972 256.439C88.6552 256.506 88.2031 256.486 87.7668 256.381C87.3303 256.277 86.9182 256.09 86.5538 255.83C86.1894 255.57 85.8799 255.244 85.6429 254.869L55.9344 207.847C55.6876 207.457 55.5247 207.022 55.4557 206.569C55.3867 206.117 55.4131 205.657 55.5331 205.217C55.6532 204.777 55.8645 204.368 56.1539 204.013C56.4433 203.659 56.8046 203.367 57.2156 203.156L106.702 177.765C107.097 177.563 107.529 177.439 107.975 177.401C108.421 177.362 108.871 177.41 109.3 177.542C109.729 177.674 110.129 177.887 110.475 178.169C110.822 178.45 111.11 178.796 111.322 179.184L119.878 194.883C120.094 195.28 120.227 195.714 120.269 196.16C120.311 196.606 120.261 197.055 120.123 197.479C119.984 197.903 119.759 198.295 119.462 198.631C119.164 198.967 118.8 199.24 118.391 199.434L87.6732 213.996L106.723 242.151C106.977 242.526 107.152 242.946 107.237 243.387C107.323 243.827 107.317 244.279 107.221 244.715C107.125 245.151 106.94 245.562 106.677 245.925C106.414 246.287 106.079 246.594 105.691 246.825L90.3425 255.995ZM113.447 294.602L97.9843 285.279C97.2097 284.812 96.6525 284.065 96.4352 283.203C96.2179 282.341 96.3582 281.434 96.8254 280.681L168.745 164.927C169.213 164.175 169.969 163.639 170.847 163.438C171.726 163.236 172.654 163.385 173.429 163.852L188.891 173.174C189.275 173.405 189.609 173.708 189.875 174.064C190.141 174.42 190.333 174.823 190.44 175.25C190.548 175.677 190.569 176.12 190.502 176.552C190.435 176.985 190.281 177.399 190.049 177.772L118.129 293.525C117.898 293.898 117.594 294.222 117.233 294.477C116.873 294.733 116.463 294.916 116.028 295.016C115.594 295.116 115.142 295.131 114.699 295.06C114.256 294.989 113.83 294.833 113.447 294.602ZM229.66 255.297L180.174 280.688C179.779 280.891 179.347 281.014 178.901 281.053C178.455 281.091 178.005 281.043 177.576 280.911C177.147 280.779 176.748 280.567 176.401 280.285C176.054 280.003 175.766 279.658 175.554 279.269L166.998 263.57C166.782 263.173 166.649 262.739 166.606 262.293C166.564 261.847 166.614 261.399 166.753 260.974C166.892 260.55 167.116 260.158 167.414 259.822C167.711 259.486 168.076 259.213 168.485 259.019L199.203 244.458L180.153 216.303C179.899 215.928 179.724 215.507 179.638 215.067C179.553 214.627 179.559 214.175 179.655 213.739C179.751 213.303 179.936 212.892 180.199 212.529C180.462 212.166 180.797 211.86 181.185 211.628L196.534 202.459C196.914 202.231 197.338 202.08 197.78 202.014C198.221 201.948 198.674 201.967 199.11 202.072C199.546 202.177 199.959 202.364 200.323 202.624C200.687 202.883 200.997 203.21 201.234 203.585L230.942 250.606C231.189 250.997 231.352 251.432 231.421 251.884C231.49 252.336 231.463 252.797 231.343 253.236C231.223 253.676 231.012 254.086 230.722 254.44C230.433 254.795 230.071 255.086 229.66 255.297Z" fill="#3C8AFF"/>
</svg>
