<svg width="270" height="255" viewBox="0 0 270 255" fill="none" xmlns="http://www.w3.org/2000/svg">
<path d="M267.796 96.414L257.227 85.1875C254.308 82.0869 249.577 82.0869 246.658 85.1875L241.377 90.7983L227.88 76.4613C230.509 65.8896 228.048 54.1869 220.244 45.8972L199.112 23.4491C169.932 -7.54654 122.619 -7.54654 93.435 23.4491L135.705 45.8972V55.1989C135.705 63.6175 138.852 71.6939 144.461 77.6469L167.41 102.025C175.214 110.314 186.231 112.929 196.183 110.136L209.68 124.473L204.398 130.084C201.479 133.184 201.479 138.21 204.398 141.31L214.967 152.537C217.886 155.637 222.616 155.637 225.535 152.537L267.805 107.636C270.714 104.54 270.714 99.5146 267.796 96.414ZM133.893 88.8735C132.165 87.0379 130.698 85.0089 129.293 82.9452L10.1566 201.099C-1.78499 212.945 -2.10724 232.943 9.44208 245.216C20.9914 257.489 39.8215 257.147 50.9739 244.457L162.185 117.919C160.335 116.476 158.495 115.007 156.842 113.251L133.893 88.8735Z" fill="white" fill-opacity="0.03"/>
</svg>
