<svg width="495" height="500" viewBox="0 0 495 500" fill="none" xmlns="http://www.w3.org/2000/svg">
<path d="M250.123 175.856C290.463 175.856 323.165 143.104 323.165 102.703C323.165 62.3012 290.463 29.5494 250.123 29.5494C209.782 29.5494 177.08 62.3012 177.08 102.703C177.08 143.104 209.782 175.856 250.123 175.856Z" fill="#FEB8B8"/>
<path d="M318.345 39.5921C307.425 21.8321 290.331 8.74544 270.354 2.85125L261.387 9.40487V0.895187C256.589 0.159772 251.733 -0.123531 246.883 0.0490038L239.146 7.05956V0.631444C227.692 2.057 216.656 5.84402 206.736 11.7537C196.816 17.6634 188.226 25.5675 181.507 34.9678C164.707 59.2247 161.87 92.9715 178.395 117.423C182.931 103.461 188.437 90.3611 192.974 76.4006C196.539 76.8873 200.153 76.9049 203.722 76.4528L209.241 63.5557L210.783 75.907C227.889 74.4149 253.261 71.1375 269.478 68.1349L267.901 58.6592L277.335 66.5329C282.303 65.3878 285.253 64.3484 285.01 63.5544C297.071 83.0277 311.831 95.465 323.891 114.938C328.471 87.4799 333.744 64.6487 318.345 39.5921Z" fill="#414141"/>
<path d="M407.217 290.818C404.705 275.684 402.114 260.26 395.091 246.627C390.476 237.697 383.149 229.187 373.272 227.422C371.326 227.248 369.414 226.805 367.59 226.104C364.696 224.708 325.805 202.474 319.624 198.601C314.317 195.276 305.939 189.121 301.714 189.121C297.464 189.027 281.168 192.826 217.562 187.846C217.562 187.846 200.089 194.744 186.568 203.108C186.363 202.972 120.551 238.367 118.079 238.274C113.396 238.076 109.044 241.079 106.36 244.86C103.676 248.641 102.417 253.322 101.099 257.847C115.473 289.907 128.625 322.008 143.001 354.068C143.674 355.276 144.032 356.634 144.041 358.017C143.752 359.452 143.14 360.803 142.252 361.966C135.203 373.307 135.427 387.573 136.197 400.903C136.968 414.233 137.921 428.313 131.972 440.261C130.355 443.541 128.251 446.544 126.712 449.824C123.108 457.254 121.806 481.015 123.911 488.998L387.612 496.564C381.942 480.955 407.217 290.818 407.217 290.818Z" fill="white"/>
<path d="M78.3047 355.49C77.7786 359.302 77.7256 363.164 78.147 366.989L81.9265 421.35C82.2814 426.474 82.6306 431.585 83.1108 436.696C84.0176 446.614 85.3723 456.454 87.0536 466.279C87.0916 467.674 87.6806 468.997 88.6915 469.958C89.7024 470.919 91.0524 471.438 92.4455 471.403C109.083 474.929 126.272 474.788 143.252 473.827C169.162 472.379 235.45 469.639 239.5 464.37C243.549 459.101 241.189 450.579 235.909 446.318C230.628 442.058 143.152 431.671 143.152 431.671C144.007 424.887 146.585 418.499 149.031 412.058C153.424 400.635 157.528 388.836 157.607 376.599C157.685 364.362 153.082 351.496 143.073 344.485C134.839 338.73 124.239 337.662 114.206 337.899C106.906 338.109 94.2929 336.358 87.6252 339.216C82.349 341.543 79.2904 350.316 78.3047 355.49Z" fill="#FBBEBE"/>
<path d="M100.338 258.823C99.0573 260.166 98.0639 261.758 97.4192 263.5C86.7881 287.495 80.5087 313.195 78.8751 339.396C78.9038 340.673 78.6098 341.937 78.0204 343.071C77.4391 343.825 76.7921 344.526 76.087 345.165C75.4722 345.895 75.007 346.739 74.7179 347.649C74.4288 348.559 74.3216 349.517 74.4022 350.468C74.4828 351.42 74.7498 352.346 75.1878 353.194C75.6259 354.042 76.2264 354.796 76.9552 355.412C77.0748 355.513 77.1974 355.61 77.3233 355.703C79.4933 351.613 84.6879 350.276 89.3053 349.921C111.413 348.169 133.009 358.47 155.183 357.693C153.619 352.279 151.369 347.076 150.093 341.597C144.45 317.268 158.523 290.78 149.896 267.347C148.172 262.657 145.292 258.047 140.755 255.992C138.876 255.234 136.911 254.712 134.903 254.441C129.3 253.427 118.146 249.093 112.729 250.832C110.729 251.478 109.941 253.361 108.283 254.499C105.765 256.11 102.425 256.702 100.338 258.823Z" fill="white"/>
<path d="M407.375 339.216C400.707 336.358 388.094 338.109 380.794 337.899C370.761 337.662 360.16 338.73 351.927 344.485C341.918 351.496 337.314 364.362 337.393 376.599C337.472 388.836 341.575 400.635 345.969 412.058C348.415 418.499 350.993 424.887 351.848 431.671C351.848 431.671 264.372 442.058 259.091 446.318C253.811 450.579 251.45 459.101 255.5 464.37C259.55 469.639 385.917 474.929 402.554 471.403C403.947 471.438 405.297 470.918 406.308 469.958C407.319 468.997 407.908 467.674 407.946 466.279C409.628 456.454 410.982 446.614 411.889 436.696C412.369 431.585 412.718 426.474 413.073 421.35L416.853 366.989C417.274 363.164 417.221 359.302 416.695 355.49C415.71 350.316 412.651 341.544 407.375 339.216Z" fill="#FBBEBE"/>
<path d="M386.717 254.499C385.06 253.361 384.271 251.478 382.271 250.832C376.854 249.093 365.7 253.427 360.097 254.441C358.09 254.712 356.124 255.233 354.245 255.992C349.708 258.047 346.828 262.657 345.104 267.347C336.477 290.78 350.55 317.268 344.907 341.597C343.631 347.076 341.381 352.279 339.817 357.693C361.991 358.47 383.587 348.169 405.695 349.921C410.312 350.276 415.507 351.613 417.677 355.703C417.803 355.61 417.925 355.513 418.045 355.412C418.774 354.796 419.374 354.042 419.812 353.194C420.25 352.346 420.517 351.42 420.598 350.468C420.679 349.517 420.571 348.559 420.282 347.649C419.993 346.739 419.528 345.895 418.913 345.165C418.208 344.526 417.561 343.825 416.98 343.071C416.39 341.937 416.096 340.673 416.125 339.396C414.491 313.195 408.212 287.495 397.581 263.499C396.936 261.758 395.943 260.166 394.662 258.823C392.575 256.702 389.235 256.11 386.717 254.499Z" fill="white"/>
<path d="M228.49 473.999C239.378 473.999 248.204 465.159 248.204 454.255C248.204 443.351 239.378 434.511 228.49 434.511C217.602 434.511 208.776 443.351 208.776 454.255C208.776 465.159 217.602 473.999 228.49 473.999Z" fill="#FBBEBE"/>
<path d="M272.143 473.999C283.031 473.999 291.857 465.159 291.857 454.255C291.857 443.351 283.031 434.511 272.143 434.511C261.255 434.511 252.429 443.351 252.429 454.255C252.429 465.159 261.255 473.999 272.143 473.999Z" fill="#FBBEBE"/>
<path d="M393.834 498.746H122.99C119.828 498.742 116.796 497.482 114.56 495.243C112.324 493.004 111.066 489.968 111.063 486.801V322.239C111.066 319.072 112.324 316.036 114.56 313.797C116.796 311.557 119.828 310.298 122.99 310.294H393.834C396.996 310.298 400.028 311.557 402.264 313.797C404.5 316.036 405.758 319.072 405.761 322.239V486.801C405.758 489.968 404.5 493.004 402.264 495.243C400.028 497.482 396.996 498.742 393.834 498.746Z" fill="#3F3D56"/>
<path d="M257.755 412.423C262.113 412.423 265.646 408.885 265.646 404.52C265.646 400.155 262.113 396.617 257.755 396.617C253.397 396.617 249.864 400.155 249.864 404.52C249.864 408.885 253.397 412.423 257.755 412.423Z" fill="white"/>
<path d="M495 465.164H0V493.43H29.2787V500H465.733V493.43H495V465.164Z" fill="#F1F1F1"/>
<path d="M182.955 129.968C171.219 129.968 161.704 119.665 161.704 106.956V95.4503C161.704 82.7412 171.219 72.4385 182.955 72.4385V129.968H182.955Z" fill="#FEFFBC"/>
<path d="M318.592 72.4385C330.329 72.4385 339.843 82.7412 339.843 95.4503V106.956C339.843 119.665 330.329 129.968 318.592 129.968V72.4385Z" fill="#FEFFBC"/>
<path d="M329.728 97.2584H326.357C326.357 50.9541 291.568 13.2826 248.807 13.2826C206.046 13.2826 171.258 50.9541 171.258 97.2584H167.886C167.886 48.9407 204.187 9.63147 248.807 9.63147C293.427 9.63149 329.728 48.9408 329.728 97.2584Z" fill="#FEFFBC"/>
</svg>
