<svg width="200" height="268" viewBox="0 0 200 268" fill="none" xmlns="http://www.w3.org/2000/svg">
<path opacity="0.05" d="M126.841 255.605L126.841 255.605C124.03 253.905 121.78 251.407 120.372 248.437L111.754 230.24L188.4 194.063L196.975 212.281C198.376 215.257 198.871 218.579 198.398 221.83L198.398 221.83L196.014 238.242L196.508 238.314L196.014 238.242C195.619 240.965 194.558 243.547 192.927 245.756C191.295 247.965 189.143 249.734 186.661 250.906L156.747 265.025C154.265 266.196 151.532 266.733 148.789 266.589C146.046 266.444 143.379 265.622 141.026 264.196L140.767 264.624L141.026 264.196L126.841 255.605ZM180.748 177.534L103.857 213.827L103.841 213.802L103.818 213.777C91.3514 199.796 69.7131 186.509 57.3322 181.097C37.1931 172.296 20.0133 156.446 9.87596 134.969C-11.3815 89.9321 5.15183 33.212 54.265 9.84715C101.189 -12.4783 157.354 7.71468 179.605 54.857C189.742 76.3343 191.058 99.6714 185.052 120.813C181.361 133.811 177.865 158.962 180.735 177.473L180.74 177.508L180.748 177.534ZM56.4123 113.004C46.3982 91.7876 55.4483 66.4103 76.5794 56.4364C81.116 54.2952 83.0468 48.874 80.8994 44.3243C78.7519 39.7745 73.3394 37.8194 68.8029 39.9606C38.6131 54.2102 25.6937 90.4514 39.9958 120.752C42.1433 125.302 47.5558 127.257 52.0924 125.116C56.6289 122.975 58.5597 117.554 56.4123 113.004Z" fill="#FCFF58" stroke="black"/>
</svg>
