<svg width="280" height="194" viewBox="0 0 280 194" fill="none" xmlns="http://www.w3.org/2000/svg">
<g opacity="0.05" clip-path="url(#clip0_8_183)">
<path d="M150.693 111.265L144.295 110.268L149.762 75.1705C150.037 73.4077 148.828 71.7569 147.061 71.4815L141.63 70.6357C139.735 70.3404 137.797 70.6104 136.058 71.4139L129.293 74.5351C128.907 74.7129 128.56 74.9647 128.272 75.2762C127.984 75.5878 127.761 75.953 127.614 76.3509C127.468 76.7488 127.401 77.1717 127.419 77.5954C127.436 78.019 127.537 78.4351 127.716 78.82L130.44 84.6816C130.619 85.0665 130.871 85.4127 131.184 85.7003C131.496 85.9879 131.863 86.2112 132.262 86.3576C132.661 86.504 133.085 86.5705 133.509 86.5534C133.934 86.5363 134.351 86.4358 134.737 86.2578L134.944 86.1634L131.5 108.275L125.102 107.278C123.334 107.003 121.68 108.208 121.406 109.971L120.412 116.352C120.137 118.115 121.346 119.766 123.114 120.041L148.705 124.027C150.472 124.303 152.126 123.098 152.401 121.335L153.395 114.954C153.67 113.191 152.46 111.54 150.693 111.265ZM266.975 37.8713L36.6529 1.99322C29.5872 0.892591 22.9669 5.71532 21.8691 12.7627L1.98815 140.39C0.890349 147.438 5.73012 154.046 12.7957 155.146L243.118 191.024C250.184 192.125 256.804 187.302 257.902 180.255L277.783 52.6272C278.881 45.5798 274.041 38.9719 266.975 37.8713ZM22.1757 136.999L26.1519 111.473C40.2871 113.675 49.9633 126.886 47.7671 140.985L22.1757 136.999ZM36.0924 47.6595L40.0686 22.134L65.6599 26.1204C63.4637 40.2193 50.2276 49.8613 36.0924 47.6595ZM132.927 141.178C111.726 137.876 97.6558 115.197 101.498 90.5291C105.342 65.8571 125.643 48.5366 146.844 51.8391C168.045 55.1416 182.116 77.8164 178.273 102.488C174.429 127.164 154.12 144.48 132.927 141.178ZM239.702 170.884L214.111 166.897C216.307 152.798 229.543 143.156 243.679 145.358L239.702 170.884ZM253.619 81.5443C239.484 79.3424 229.808 66.1312 232.004 52.0323L257.595 56.0188L253.619 81.5443Z" fill="#8CFF64"/>
</g>
<defs>
<clipPath id="clip0_8_183">
<rect width="259" height="155" fill="white" transform="translate(23.8572) rotate(8.85399)"/>
</clipPath>
</defs>
</svg>
