<svg width="308" height="266" viewBox="0 0 308 266" fill="none" xmlns="http://www.w3.org/2000/svg">
<path d="M1.40381 76.299C2.24831 70.9651 8.54726 68.2083 12.6163 71.3556L58.6002 106.922L96.7776 94.3816L99.9724 54.7833L53.9886 19.2167C49.8948 16.0503 51.1733 9.35202 56.2499 7.24899C82.7132 -3.69002 113.079 -1.19824 135.978 16.5077C160.491 35.4676 169.471 67.1427 162.462 97.103L294.422 199.168C309.875 211.121 311.819 234.151 298.764 250.604C285.708 267.058 262.594 270.706 247.141 258.754L115.293 156.775C87.5049 170.785 54.2621 169.68 29.5882 150.596C6.66425 132.865 -3.04689 104.306 1.40381 76.299ZM271.926 242.597C279.485 241.404 285.101 234.326 284.465 226.795C283.829 219.259 277.182 214.123 269.624 215.316C262.066 216.509 256.449 223.581 257.085 231.117C257.721 238.648 264.368 243.79 271.926 242.597Z" fill="white" fill-opacity="0.03"/>
</svg>
